<?xml version="1.0" encoding="UTF-8"?>
<svg xmlns="http://www.w3.org/2000/svg" xmlns:xlink="http://www.w3.org/1999/xlink" width="18pt" height="18pt" viewBox="0 0 18 18" version="1.1">
<g id="surface5283023">
<path style=" stroke:none;fill-rule:nonzero;fill:rgb(23.137255%,34.901962%,59.607846%);fill-opacity:1;" d="M 1.125 1.125 L 16.875 1.125 L 16.875 16.875 L 1.125 16.875 Z M 1.125 1.125 "/>
<path style=" stroke:none;fill-rule:nonzero;fill:rgb(27.843139%,53.333336%,78.039217%);fill-opacity:1;" d="M 16.648438 1.351562 L 16.648438 16.648438 L 1.351562 16.648438 L 1.351562 1.351562 L 16.648438 1.351562 M 17.101562 0.898438 L 0.898438 0.898438 L 0.898438 17.101562 L 17.101562 17.101562 Z M 17.101562 0.898438 "/>
<path style=" stroke:none;fill-rule:nonzero;fill:rgb(100%,100%,100%);fill-opacity:1;" d="M 11.699219 16.648438 L 11.699219 10.800781 L 13.917969 10.800781 L 14.234375 8.550781 L 11.699219 8.550781 L 11.699219 7.027344 C 11.699219 6.320312 12.015625 5.839844 13.027344 5.839844 L 14.398438 5.839844 L 14.398438 3.703125 C 14.175781 3.671875 13.328125 3.605469 12.4375 3.605469 C 10.578125 3.605469 9.449219 4.742188 9.449219 6.824219 L 9.449219 8.550781 L 7.199219 8.550781 L 7.199219 10.800781 L 9.449219 10.800781 L 9.449219 16.648438 Z M 11.699219 16.648438 "/>
</g>
</svg>
